<svg id="ISO_C__Logo" data-name="ISO_C++_Logo" xmlns="http://www.w3.org/2000/svg" width="144.334" height="162.422" viewBox="0 0 144.334 162.422">
  <path id="Path_9" data-name="Path 9" d="M223.331,167.3a12.791,12.791,0,0,0,1.836-6.157v-68.9a12.784,12.784,0,0,0-1.836-6.156L153,126.693Z" transform="translate(-80.833 -45.482)" fill="#00599c"/>
  <path id="Path_10" data-name="Path 10" d="M80.473,251.9l59.667-34.449a12.784,12.784,0,0,0,4.413-4.668L74.224,172.175,3.893,212.781a12.787,12.787,0,0,0,4.414,4.668L67.974,251.9A13.864,13.864,0,0,0,80.473,251.9Z" transform="translate(-2.057 -90.964)" fill="#004482"/>
  <path id="Path_11" data-name="Path 11" d="M142.5,40.605a12.793,12.793,0,0,0-4.414-4.668L78.417,1.489a13.864,13.864,0,0,0-12.5,0L6.25,35.937A13.865,13.865,0,0,0,0,46.762v68.9a12.786,12.786,0,0,0,1.836,6.157L72.167,81.211Z" fill="#659ad2"/>
  <g id="Group_1" data-name="Group 1" transform="translate(24.056 33.1)">
    <path id="Path_12" data-name="Path 12" d="M99.111,166.4a48.111,48.111,0,1,1,41.664-72.182l-20.821,12.049a24.055,24.055,0,1,0,0,24.043l20.821,12.048A48.284,48.284,0,0,1,99.111,166.4Z" transform="translate(-51 -70.175)" fill="#fff"/>
  </g>
  <g id="Group_2" data-name="Group 2" transform="translate(104.241 73.193)">
    <path id="Path_13" data-name="Path 13" d="M237.037,160.521h-5.346v-5.346h-5.345v5.346H221v5.346h5.346v5.346h5.345v-5.346h5.346Z" transform="translate(-221 -155.175)" fill="#fff"/>
  </g>
  <g id="Group_3" data-name="Group 3" transform="translate(124.288 73.193)">
    <path id="Path_14" data-name="Path 14" d="M279.537,160.521h-5.346v-5.346h-5.345v5.346H263.5v5.346h5.346v5.346h5.345v-5.346h5.346Z" transform="translate(-263.5 -155.175)" fill="#fff"/>
  </g>
</svg>
