<svg xmlns="http://www.w3.org/2000/svg" width="144.437" height="163.785" viewBox="0 0 144.437 163.785">
  <g id="HTML5_logo_and_wordmark" transform="translate(-74.6 -50.482)">
    <path id="Path_29" data-name="Path 29" d="M87.738,248.062,74.6,100.6H219.036L205.9,247.983l-59.2,16.4" transform="translate(0 -50.118)" fill="#e44d26"/>
    <path id="Path_30" data-name="Path 30" d="M256,270.142V131h59.041L303.774,256.8" transform="translate(-109.182 -68.415)" fill="#f16529"/>
    <path id="Path_31" data-name="Path 31" d="M142,176.3h45.385v18.074H161.826l1.672,18.512h23.887v18.035H146.937m.8,9.077h18.154l1.274,14.452,20.224,5.414v18.871l-37.1-10.351" transform="translate(-40.567 -95.68)" fill="#ebebeb"/>
    <path id="Path_32" data-name="Path 32" d="M301.106,176.3H255.8v18.074h43.633M297.8,212.887h-42v18.074h22.294l-2.11,23.489L255.8,259.865v18.791l37.025-10.271" transform="translate(-109.061 -95.68)" fill="#fff"/>
  </g>
</svg>
