<svg xmlns="http://www.w3.org/2000/svg" width="127.363" height="172.69" viewBox="0 0 127.363 172.69">
  <g id="java-seeklogo.com" transform="translate(-0.517 -0.371)">
    <path id="Path_15" data-name="Path 15" d="M74.253,267.473s-6.6,3.838,4.7,5.136c13.684,1.561,20.678,1.337,35.759-1.517a62.215,62.215,0,0,0,9.5,4.639c-33.806,14.489-76.51-.839-49.957-8.259" transform="translate(-32.717 -133.551)" fill="#5382a1"/>
    <path id="Path_16" data-name="Path 16" d="M65,229.659s-7.4,5.479,3.9,6.648c14.618,1.508,26.162,1.631,46.138-2.215a20.477,20.477,0,0,0,7.107,4.333c-40.873,11.952-86.4.943-57.148-8.766" transform="translate(-27.593 -114.644)" fill="#5382a1"/>
    <path id="Path_17" data-name="Path 17" d="M136.3,118.214c8.33,9.59-2.189,18.22-2.189,18.22s21.151-10.919,11.437-24.591c-9.072-12.751-16.029-19.086,21.634-40.929,0,0-59.119,14.765-30.882,47.3" transform="translate(-64.072 -35.271)" fill="#e76f00"/>
    <path id="Path_18" data-name="Path 18" d="M116.94,293.981s4.884,4.024-5.378,7.137c-19.513,5.911-81.216,7.7-98.357.236-6.162-2.681,5.393-6.4,9.028-7.181a23.438,23.438,0,0,1,5.957-.669c-6.852-4.827-44.291,9.479-19.017,13.575,68.926,11.178,125.646-5.033,107.768-13.1" transform="translate(0 -146.075)" fill="#5382a1"/>
    <path id="Path_19" data-name="Path 19" d="M58.577,190.452s-31.386,7.455-11.115,10.162c8.559,1.146,25.622.887,41.515-.445,12.989-1.1,26.031-3.425,26.031-3.425a55.1,55.1,0,0,0-7.894,4.224c-31.872,8.382-93.443,4.483-75.717-4.091,14.99-7.246,27.179-6.424,27.179-6.424" transform="translate(-13.869 -95.026)" fill="#5382a1"/>
    <path id="Path_20" data-name="Path 20" d="M200.855,220.283c32.4-16.836,17.419-33.015,6.963-30.835a24.247,24.247,0,0,0-3.705,1,5.9,5.9,0,0,1,2.769-2.136c20.685-7.272,36.594,21.449-6.677,32.824a2.819,2.819,0,0,0,.651-.849" transform="translate(-99.844 -93.386)" fill="#5382a1"/>
    <path id="Path_21" data-name="Path 21" d="M122.52.371s17.943,17.949-17.018,45.55c-28.036,22.141-6.393,34.765-.012,49.188C89.125,80.345,77.116,67.347,85.173,55.25,97,37.492,129.76,28.883,122.52.371" transform="translate(-41.042)" fill="#e76f00"/>
    <path id="Path_22" data-name="Path 22" d="M70.854,328.846c31.1,1.991,78.856-1.1,79.987-15.82,0,0-2.174,5.578-25.7,10.009-26.544,5-59.282,4.412-78.7,1.211,0,0,3.975,3.29,24.414,4.6" transform="translate(-22.961 -156.327)" fill="#5382a1"/>
  </g>
</svg>
