<svg id="javascript-js-seeklogo.com" xmlns="http://www.w3.org/2000/svg" width="190.551" height="190.551" viewBox="0 0 190.551 190.551">
  <path id="Path_25" data-name="Path 25" d="M0,0H190.551V190.551H0Z" fill="#f7df1e"/>
  <path id="Path_26" data-name="Path 26" d="M67.312,189.286l14.582-8.825c2.813,4.988,5.372,9.208,11.511,9.208,5.884,0,9.594-2.3,9.594-11.255V117.529h17.907v61.139c0,18.547-10.872,26.989-26.733,26.989-14.325,0-22.64-7.419-26.861-16.372" transform="translate(-17.209 -30.048)"/>
  <path id="Path_27" data-name="Path 27" d="M152.381,187.015l14.58-8.442c3.838,6.268,8.827,10.873,17.652,10.873,7.42,0,12.151-3.71,12.151-8.826,0-6.14-4.86-8.314-13.047-11.895l-4.476-1.92c-12.92-5.5-21.49-12.406-21.49-26.988,0-13.431,10.233-23.664,26.222-23.664,11.384,0,19.57,3.966,25.453,14.326l-13.942,8.953c-3.07-5.5-6.395-7.674-11.511-7.674-5.244,0-8.57,3.326-8.57,7.674,0,5.372,3.326,7.547,11,10.873l4.476,1.919c15.221,6.524,23.792,13.174,23.792,28.139,0,16.118-12.663,24.942-29.674,24.942-16.628,0-27.373-7.93-32.616-18.291" transform="translate(-38.958 -29.696)"/>
</svg>
