<svg xmlns="http://www.w3.org/2000/svg" width="35.33" height="34.459" viewBox="0 0 35.33 34.459">
  <path id="Path_3" data-name="Path 3" d="M17.665,0a17.667,17.667,0,0,0-5.584,34.428c.882.163,1.167-.384,1.167-.849V30.29c-4.914,1.069-5.937-2.084-5.937-2.084A4.679,4.679,0,0,0,5.35,25.62c-1.6-1.1.122-1.073.122-1.073a3.708,3.708,0,0,1,2.707,1.821,3.76,3.76,0,0,0,5.141,1.468,3.748,3.748,0,0,1,1.122-2.361c-3.923-.449-8.048-1.964-8.048-8.731A6.837,6.837,0,0,1,8.213,12a6.354,6.354,0,0,1,.172-4.675s1.484-.474,4.859,1.811a16.744,16.744,0,0,1,8.846,0c3.373-2.285,4.853-1.811,4.853-1.811A6.348,6.348,0,0,1,27.117,12a6.819,6.819,0,0,1,1.818,4.742c0,6.785-4.132,8.279-8.066,8.716a4.222,4.222,0,0,1,1.212,3.271v4.848c0,.47.283,1.022,1.179.848A17.668,17.668,0,0,0,17.665,0Z" fill="#e8e9eb"/>
</svg>
