<svg xmlns="http://www.w3.org/2000/svg" width="160.833" height="193" viewBox="0 0 160.833 193">
  <path id="Path_4" data-name="Path 4" d="M10.042,193H162.833V8.042h-8.042V184.958H10.042ZM146.75,0H2V176.917H146.75ZM122.625,136.708h-96.5v8.042h96.5Zm0-24.125h-96.5v8.042h96.5Zm0-24.125h-96.5V96.5h96.5ZM63.535,57.393l7.624,2.412q-1.749,6.381-5.83,9.473a16.613,16.613,0,0,1-10.35,3.1,16.751,16.751,0,0,1-12.746-5.3q-4.994-5.3-4.994-14.491,0-9.722,5.018-15.1t13.2-5.38q7.141,0,11.6,4.222A15.329,15.329,0,0,1,71.054,43.5l-7.784,1.858a8.04,8.04,0,0,0-8.211-6.53,8.884,8.884,0,0,0-7.028,3.1Q45.341,45.041,45.337,52q0,7.394,2.662,10.519a8.612,8.612,0,0,0,6.9,3.136,7.85,7.85,0,0,0,5.4-1.994,11.553,11.553,0,0,0,3.241-6.264Zm24.31,14.314L73.925,32.77h8.524l9.859,28.821,9.537-28.821h8.339L96.24,71.708h-8.4Z" transform="translate(-2)" fill="#e8e9eb" fill-rule="evenodd"/>
</svg>
